<?xml version="1.0" encoding="UTF-8"?><svg id="Capa_1" xmlns="http://www.w3.org/2000/svg" viewBox="0 0 542.18 108.5"><defs><style>.cls-1{fill:#2a265d;}</style></defs><path class="cls-1" d="M516.47,51.99c-1.4,2.95-3.56,5.06-5.77,6.56-3.47,2.35-7.64,3.46-11.83,3.46h-15.8c-4.13,0-7.34,1.03-9.61,3.1-2.27,2.07-3.41,4.82-3.41,8.27,0,3.86,1.69,7.13,5.06,9.82,3.38,2.69,7.75,4.03,13.12,4.03,6.75,0,12.75-2.21,17.98-6.61,5.24-4.41,8.66-10.19,9.92-18.6.49-3.26.51-6.84.34-10.01M519.45,95.06v-4.05c-5.38,8.15-14.92,17.44-31.39,17.44-12.12,0-22.42-3.17-30.83-9.57-8.4-6.41-12.61-15.19-12.61-26.35,0-8.54,2.65-15.6,7.96-21.18,5.31-5.58,13.47-8.37,24.49-8.37h38.44c-2.89-13.64-11.99-20.46-27.28-20.46-7.77,0-15.3,1.86-22.58,5.59-5.09,2.61-11.32,1.05-14.35-3.8l-5.64-9.02c12.95-10.2,27.76-15.29,44.43-15.29s28.45,4.92,37.82,14.78c9.37,9.85,14.06,22.49,14.06,37.92,0,.07.21,53.32.21,53.32h-11.77c-6.05,0-10.95-4.9-10.95-10.95M428.2,25.83c3.17-3.58,4.06-8.33,2.69-14.26-1.38-5.92-4.41-8.89-9.09-8.89h-72.13l-.09,9.19c-.06,6.09,4.86,11.07,10.95,11.07h38.53l-50.43,61.58c-3.03,3.58-3.82,8.06-2.38,13.43,1.45,5.37,4.37,8.06,8.78,8.06h76.88v-9.71c0-6.05-4.9-10.95-10.95-10.95h-41.95l49.19-59.52ZM294.9,0c-12.68,0-25.08,4.55-37.2,13.64,0-6.05-4.9-10.95-10.95-10.95h-15.71v92.37c0,6.05,4.91,10.96,10.96,10.96h17.97V34.1c9.37-7.16,18.19-10.75,26.45-10.75,4.82,0,8.33,1.38,10.54,4.13,2.2,2.76,3.31,7.1,3.31,13.02v54.56c0,6.05,4.9,10.95,10.95,10.95h17.57V33.89c0-10.88-3-19.25-8.99-25.11-5.99-5.85-14.29-8.78-24.9-8.78M173.18,46.5c4.13,0,7.34-1.03,9.61-3.1,2.27-2.07,3.41-4.82,3.41-8.27,0-3.86-1.69-7.13-5.06-9.82-3.38-2.69-7.75-4.03-13.12-4.03-6.75,0-12.75,2.21-17.98,6.61-5.24,4.41-8.66,10.19-9.92,18.6-.49,3.26-.5,6.84-.34,10.01,1.4-2.95,3.56-5.06,5.77-6.56,3.47-2.35,7.64-3.45,11.84-3.45h15.8ZM179.18,65.51h-38.44c2.89,13.64,11.99,20.46,27.28,20.46,7.77,0,15.3-1.86,22.58-5.59,5.09-2.61,11.32-1.05,14.35,3.8l5.64,9.02c-12.95,10.2-27.76,15.29-44.43,15.29s-28.45-4.93-37.82-14.78c-9.37-9.85-14.05-22.49-14.05-37.92s4.82-28.76,14.47-39.57C138.39,5.41,151.55,0,168.22,0c12.12,0,22.39,3.2,30.79,9.61,8.4,6.41,12.61,15.19,12.61,26.35,0,8.54-2.65,15.6-7.96,21.18-5.31,5.58-13.47,8.37-24.49,8.37M89.12,2.69h19.79l-36.17,94.24c-1.38,3.86-3.41,6.54-6.1,8.06-2.69,1.52-6.65,2.27-11.88,2.27s-9.4-.76-12.09-2.27c-2.69-1.51-4.79-4.2-6.3-8.06L0,2.69h21.2c4.74,0,8.94,3.04,10.41,7.55l23.36,71.4L78.72,10.18c1.49-4.48,5.68-7.5,10.39-7.5"/></svg>